<?xml version="1.0" standalone="no"?>
<!DOCTYPE svg PUBLIC "-//W3C//DTD SVG 1.1//EN" "http://www.w3.org/Graphics/SVG/1.1/DTD/svg11.dtd" >
<!--
2013-9-30: Created.
-->
<svg>
<metadata>
Created by iconfont
</metadata>
<defs>

<font id="iconfont" horiz-adv-x="1024" >
  <font-face
    font-family="iconfont"
    font-weight="500"
    font-stretch="normal"
    units-per-em="1024"
    ascent="896"
    descent="-128"
  />
    <missing-glyph />
    
    <glyph glyph-name="gouwucheman" unicode="&#58891;" d="M346.112 89.088q19.456 0 36.864-7.168t30.208-19.968 20.48-30.208 7.68-36.864-7.68-36.864-20.48-30.208-30.208-20.48-36.864-7.68q-20.48 0-37.888 7.68t-30.208 20.48-20.48 30.208-7.68 36.864 7.68 36.864 20.48 30.208 30.208 19.968 37.888 7.168zM772.096 87.04q19.456 0 37.376-7.168t30.72-19.968 20.48-30.208 7.68-36.864-7.68-36.864-20.48-30.208-30.72-20.48-37.376-7.68-36.864 7.68-30.208 20.48-20.48 30.208-7.68 36.864 7.68 36.864 20.48 30.208 30.208 19.968 36.864 7.168zM944.128 668.672q28.672 0 44.544-7.68t22.528-18.944 6.144-24.064-3.584-22.016-13.312-37.888-22.016-62.976-23.552-68.096-18.944-53.248q-13.312-40.96-33.28-56.832t-49.664-15.872l-35.84 0-65.536 0-86.016 0-96.256 0-253.952 0 14.336-92.16 517.12 0q49.152 0 49.152-41.984 0-20.48-9.728-35.328t-38.4-14.848l-49.152 0-94.208 0-118.784 0-119.808 0-99.328 0-55.296 0q-20.48 0-34.304 9.216t-23.04 24.064-14.848 32.256-8.704 32.768q-1.024 6.144-5.632 29.696t-11.264 58.88-14.848 78.848-16.384 87.552q-19.456 103.424-44.032 230.4l-76.8 0q-15.36 0-25.6 7.68t-16.896 18.432-9.216 23.04-2.56 22.528q0 20.48 13.824 33.792t37.376 13.312l21.504 0 21.504 0 25.6 0 34.816 0q20.48 0 32.768-6.144t19.456-15.36 10.24-19.456 5.12-17.408q2.048-8.192 4.096-23.04t4.096-30.208q3.072-18.432 6.144-38.912l700.416 0zM867.328 701.44l-374.784 0 135.168 135.168q23.552 23.552 51.712 24.064t51.712-23.04z"  horiz-adv-x="1024" />

    
    <glyph glyph-name="40" unicode="&#58928;" d="M65 742.833l894 0 0-30-894 0 0 30ZM65 458.604l894 0 0-30-894 0 0 30ZM414.008 176.155 65 176.155l0-30 344.673 0C410.606 156.291 412.036 166.311 414.008 176.155zM65-112.992l0-30 478.414 0c-13.848 8.906-26.763 19.043-38.866 30L65-112.992zM916.251 119.181c0.016 114.731-92.995 207.726-207.741 207.726-114.714 0-207.725-92.994-207.725-207.726 0-114.73 92.995-207.755 207.725-207.755 51.813 0 99.032 19.177 135.413 50.547l93.281-93.266L959-109.498l-93.28 93.267C897.119 20.166 916.251 67.34 916.251 119.181zM838.188-1.119l-4.516-4.847-4.862-4.517c-32.829-30.465-75.564-47.264-120.301-47.264-97.54 0-176.896 79.356-176.896 176.927 0 97.54 79.356 176.897 176.912 176.897 0.015 0 0.045 0 0.061 0 47.22 0 91.625-18.424 125.042-51.811 33.4-33.417 51.795-77.821 51.78-125.087C885.423 74.445 868.655 31.726 838.188-1.119z"  horiz-adv-x="1024" />

    
    <glyph glyph-name="tubiao207" unicode="&#58904;" d="M511.574284 864.240169c-265.174892 0-480.091782-214.973175-480.091782-480.088712 0-265.11042 214.91689-480.088712 480.091782-480.088712 265.050042 0 480.089735 214.978292 480.089735 480.088712C991.662996 649.266994 776.624327 864.240169 511.574284 864.240169zM634.972511 198.243619c-25.254362-18.62916-55.759559-32.693131-92.016014-35.56876l0-59.20315-63.39072 0 0 60.140543c-38.752418 4.561095-66.634756 16.063608-90.137134 34.942466-31.133538 24.815342-40.636415 51.322291-46.758126 84.579291l95.39104 23.316127c0-31.320812 32.378961-67.198625 80.642443-67.198625 28.75219 0 63.134881 14.064995 62.758286 51.510588-0.249699 30.626977-32.630707 52.567714-67.635598 60.446527-36.258501 8.127488-109.521529 33.067679-129.773731 55.322587-20.381144 22.126988-26.007551 53.573673-26.007551 90.14225 0 31.442591 14.00564 63.198329 36.755852 82.393404 22.128011 18.687491 48.008667 30.691448 84.764518 35.190118l0 50.508724 63.39072 0 0-50.321449c34.754169-3.750597 63.385603-14.691288 85.390812-33.442227 27.377824-23.506471 41.254522-53.635074 41.254522-71.763813l-95.268237-22.378733c0 23.501354-35.255613 52.510406-59.259435 52.510406-31.130468 0-55.760583-8.754804-55.760583-47.694496 0-28.008211 21.256113-37.134493 58.139884-48.94913 62.010214-19.753827 109.017015-45.443115 130.644606-67.637644 21.504788-22.318355 32.257182-50.386944 32.257182-84.325499C680.355248 248.81272 664.72452 220.493409 634.972511 198.243619z"  horiz-adv-x="1025" />

    
    <glyph glyph-name="iconfontxiangxia" unicode="&#58893;" d="M1022.976 587.776 594.944 159.744c-43.008-43.008-113.664-43.008-156.672 0L9.216 588.8c-12.288 11.264-12.288 30.72 0 43.008 11.264 12.288 30.72 12.288 43.008 0l430.08-429.056c9.216-9.216 21.504-14.336 34.816-14.336 13.312 0 25.6 5.12 34.816 14.336l428.032 428.032c11.264 12.288 30.72 12.288 43.008 0 6.144-6.144 9.216-13.312 9.216-21.504S1029.12 593.92 1022.976 587.776z"  horiz-adv-x="1033" />

    
    <glyph glyph-name="shaixuan" unicode="&#58983;" d="M51.2 748.8v-118.938l352.384-396.083v-325.299l216.832-81.28v379.469l352.384 423.194v118.938h-921.6zM918.605 656.998l-352.41-423.194v-325.299l-108.416 27.136v325.248l-352.358 396.109v37.581h813.184v-37.581zM918.605 656.998z"  horiz-adv-x="1024" />

    
    <glyph glyph-name="jiantou" unicode="&#58905;" d="M830.687738 292.928818c0-9.614985-3.933589-17.949814-11.799744-25.007557-7.867178-7.05672-17.222243-10.56052-28.065196-10.512425L232.716714 257.408837c-10.789741 0-20.144806 3.5038-28.064172 10.512425-7.919367 7.009647-11.852956 15.344476-11.799744 25.007557 0.053212 9.660011 3.986801 17.996886 11.799744 25.00551l279.05253 248.641917c7.867178 7.009647 17.22122 10.513448 28.065196 10.513448 10.842952 0 20.196994-3.504824 28.064172-10.513448l279.05253-248.641917C826.754149 310.925704 830.687738 302.588829 830.687738 292.928818z"  horiz-adv-x="1024" />

    
    <glyph glyph-name="shouji" unicode="&#58914;" d="M512 76.9c-28.4 0-51.5-23.1-51.5-51.5 0-28.4 23.1-51.5 51.5-51.5 28.4 0 51.5 23.1 51.5 51.5C563.5 53.8 540.4 76.9 512 76.9zM822.8 867.5c-15 15-35 23.3-56.2 23.3L257.4 890.8c-43.8 0-79.5-35.7-79.5-79.5l0-854.6c0-43.8 35.7-79.5 79.5-79.5l509.2 0c43.8 0 79.5 35.7 79.5 79.5L846.1 811.3C846.1 832.5 837.9 852.5 822.8 867.5zM233.3 113l557.4 0 0-156.3c0-6.4-2.5-12.5-7.1-17-4.6-4.6-10.6-7.1-17-7.1L257.4-67.4c-13.3 0-24.1 10.8-24.1 24.1L233.3 113zM257.4 835.4l509.2 0c13.3 0 24.1-10.8 24.1-24.1l0-638.5L233.3 172.8 233.3 811.3C233.3 824.6 244.1 835.4 257.4 835.4z"  horiz-adv-x="1024" />

    
    <glyph glyph-name="gengduo-copy" unicode="&#58918;" d="M113.575 495.553c61.606 0 111.559-49.951 111.559-111.554s-49.952-111.554-111.559-111.554c-61.606 0-111.559 49.951-111.559 111.554s49.954 111.554 111.559 111.554zM511.999 495.553c61.606 0 111.559-49.951 111.559-111.554s-49.952-111.554-111.559-111.554c-61.606 0-111.559 49.951-111.559 111.554s49.953 111.554 111.559 111.554zM910.422 495.553c61.606 0 111.559-49.951 111.559-111.554s-49.952-111.554-111.559-111.554c-61.605 0-111.559 49.951-111.559 111.554s49.954 111.554 111.559 111.554z"  horiz-adv-x="1024" />

    
    <glyph glyph-name="iconfontjiantou" unicode="&#58936;" d="M959.429379 552.785148 890.590548 621.621932 511.268336 242.300744 131.944078 621.621932 63.105247 552.785148 501.1857 114.705718 521.348925 114.705718Z"  horiz-adv-x="1024" />

    
    <glyph glyph-name="eee" unicode="&#58958;" d="M945.096952 384.002047c0-0.932232-0.212848-1.804089-0.274246-2.721994l0-9.524934c0.082888 2.886747-0.020466 5.794983-0.082888 8.698103-1.828648-21.087271-19.324114-37.693484-40.885176-37.693484L285.223067 342.759737c-22.775726 0-41.24231 18.466584-41.24231 41.24231s18.466584 41.240263 41.24231 41.240263l574.047148 0c-2.216481 19.070334-5.833869 38.195927-11.422144 57.245795-54.393841 185.449689-248.826112 291.691385-434.277848 237.296521-185.449689-54.393841-291.691385-248.828159-237.296521-434.277848 54.395888-185.451736 248.828159-291.693432 434.275801-237.296521 94.669126 27.76639 168.496575 92.12621 211.05281 173.054381l0.286526-0.150426c3.276626 7.489578 8.749268 14.103206 16.259312 18.680455 19.454074 11.846816 44.827975 5.683443 56.676837-13.768585 8.345062-13.699 7.597025-30.253024-0.274246-43.034119l0.593518-0.311085c-52.656267-100.177584-144.030347-179.849134-261.205047-214.21585-229.493811-67.313082-470.102774 64.154135-537.417903 293.649993-67.313082 229.493811 64.160275 470.104821 293.656133 537.419949 229.491765 67.313082 470.102774-64.162322 537.415856-293.654087 11.357675-38.723953 16.47216-77.691453 16.925485-116.154463C944.785867 387.840468 945.096952 385.963725 945.096952 384.002047z"  horiz-adv-x="1024" />

    
    <glyph glyph-name="jiantou1" unicode="&#58934;" d="M256 896 768 384 256-128Z"  horiz-adv-x="1024" />

    
    <glyph glyph-name="jiantouarrow486" unicode="&#59050;" d="M171.15136 554.99776l684.02176 0-342.016-341.99552L171.15136 554.99776z"  horiz-adv-x="1024" />

    
    <glyph glyph-name="30jiantouxiangxiafill" unicode="&#58995;" d="M325.456471 33.719339M882.057788 33.719339M236.028491 18.839618M960.132455 18.839618M63.683483 107.263002M958.469023 107.263002M64.77753 37.207902M163.396533 606.831125c-40.577772 0-66.525252-54.184545-35.441258-85.258218L477.217578 172.295122c20.031716-20.031716 49.823841-20.031716 69.853837 0l349.274345 349.277785c30.304744 30.294423 6.677812 85.258218-34.928639 85.258218L163.396533 606.831125 163.396533 606.831125zM959.523505 37.207902"  horiz-adv-x="1024" />

    
    <glyph glyph-name="faxian1" unicode="&#59022;" d="M936.837848 565.574429c-23.303752 55.096852-56.659441 104.572684-99.139951 147.053194-42.479487 42.479487-91.955318 75.835176-147.053194 99.138928-57.059554 24.133653-117.65463 36.371372-180.098821 36.371372-62.445214 0-123.039267-12.236696-180.098821-36.371372-55.097876-23.303752-104.572684-56.659441-147.053194-99.139951-42.48051-42.479487-75.835176-91.955318-99.139951-147.053194-24.133653-57.060577-36.371372-117.65463-36.371372-180.099844 0-62.444191 12.236696-123.039267 36.371372-180.098821 23.303752-55.097876 56.659441-104.572684 99.139951-147.053194 42.479487-42.48051 91.955318-75.835176 147.053194-99.138928 57.059554-24.134677 117.653607-36.371372 180.098821-36.371372 62.444191 0 123.039267 12.236696 180.098821 36.370349 55.097876 23.303752 104.573707 56.659441 147.053194 99.139951 42.48051 42.48051 75.835176 91.955318 99.139951 147.053194 24.134677 57.059554 36.371372 117.65463 36.371372 180.098821C973.20922 447.919798 960.972525 508.513852 936.837848 565.574429zM510.545882-13.37231c-219.924875 0-398.846894 178.923042-398.846894 398.847917 0 219.925898 178.922019 398.847917 398.846894 398.847917 82.21856 0 158.703535-25.009603 222.254943-67.815525l-69.449745-88.704275c-45.661969 29.193903-98.755188 44.842301-154.258293 44.842301-76.706009 0-148.821467-29.870308-203.060789-84.10963s-84.10963-126.354779-84.10963-203.060789 29.870308-148.820444 84.10963-203.059765c47.77612-47.77612 109.424178-76.633355 175.860287-82.83459 14.681374-34.014698 48.51904-57.824987 87.921445-57.824987 52.867068 0 95.723132 42.857087 95.723132 95.723132 0 2.331092-0.088004 4.640694-0.251733 6.92983 16.717753 10.879792 32.43062 23.570835 46.866401 38.006616 54.239322 54.239322 84.110653 126.353756 84.110653 203.059765 0 76.307943-29.572526 148.06422-83.277682 202.206328l69.741387 89.076758c77.901231-72.838935 126.665865-176.472224 126.665865-291.283086C909.394822 165.549709 730.47178-13.37231 510.545882-13.37231zM569.814754 233.202529c-43.551912 0-80.306001-29.087479-91.9062-68.89409-108.446921 15.21861-192.169741 108.59223-192.169741 221.167169 0 123.157971 100.197026 223.354997 223.354997 223.354997 41.859363 0 81.060177-11.584849 114.582665-31.702026l-101.19782-129.253806c-4.317329 0.921999-8.792247 1.417279-13.384845 1.417279-35.244712 0-63.815421-28.570709-63.815421-63.815421s28.571732-63.815421 63.815421-63.815421 63.815421 28.571732 63.815421 63.815421c0 6.777357-1.065262 13.302981-3.022847 19.431561l103.294574 131.931798c36.767392-39.828101 59.268872-93.013417 59.268872-151.36336 0-74.806753-36.97103-141.136437-93.596701-181.692109C621.433388 221.914438 596.942601 233.202529 569.814754 233.202529z"  horiz-adv-x="1024" />

    
    <glyph glyph-name="hongbao" unicode="&#58930;" d="M854.56 896l-689.376 0c-109.024 0-133.184-30.56-133.184-146.144l0-57.216c72.224-37.6 163.328-85.44 264.96-117.792 28.32 89.216 112.928 153.952 212.896 153.952 99.84 0 184.352-64.576 212.736-153.568 102.528 33.664 192.32 84.224 265.12 124.096l0 50.56c0.032 115.552-24.16 146.112-133.152 146.112zM509.856 289.952c-118.496 0-215.136 91.008-222.304 205.824-92.032 29.152-179.008 69.792-255.552 105.44l0-604.448c0-115.552 24.16-124.768 133.184-124.768l689.344 0c109.024 0 133.184 9.216 133.184 124.8l0 610.144c-77.728-37.92-163.616-80.416-255.552-110.56-6.816-115.104-103.584-206.432-222.304-206.432zM566.048 657.056l-45.216-100.64c-3.744-8.48-6.496-14.976-8.256-19.456l-0.8 0-54.656 120.128-66.72 0 74.752-134.016-56.672 0 0-38.176 69.12 0 0-32.96-69.12 0 0-38.176 69.12 0 0-55.36 63.328 0 0 55.328 66.912 0 0 38.176-66.912 0 0 32.96 66.912 0 0 38.176-55.488 0 76.96 134.016-63.264 0z"  horiz-adv-x="1024" />

    
    <glyph glyph-name="shouye" unicode="&#59083;" d="M958.400956 444.45079c-0.058328 5.760191-2.597151 11.215436-6.965645 14.97097L524.345166 826.488857c-7.498788 6.445806-18.581194 6.445806-26.079982 0L309.582871 664.3245l0 102.017488c0 11.04966-8.901741 19.532869-19.951401 19.532869l-88.034009 0c-11.048637 0-19.928888-8.482185-19.928888-19.532869l0-211.954343L71.176063 459.42176c-4.423753-3.800559-6.967692-9.341762-6.967692-15.173584l0-105.500822c0-7.819083 4.554736-14.921851 11.660574-18.183128 2.670829-1.226944 5.51562-1.824555 8.343015-1.824555 4.699022 0 9.346879 1.654686 13.048177 4.836145l53.29788 45.825698 0-324.100516c0-60.677964 49.364291-110.042255 110.042255-110.042255L764.792447-64.741257c60.677964 0 110.042255 49.364291 110.042255 110.042255L874.834702 368.973772l51.585889-44.335764c5.955642-5.119601 14.356986-6.282077 21.481244-2.965541 7.122211 3.313465 11.645225 10.488889 11.565407 18.342764L958.400956 444.45079zM221.578538 745.965915l48.095391 0 0-115.941616-48.095391-41.336454L221.578538 745.965915zM570.718333-24.725892 436.666244-24.725892 436.666244 195.357596c0 11.031241 8.976442 20.007683 20.007683 20.007683l94.0357 0c11.031241 0 20.007683-8.976442 20.007683-20.007683L570.71731-24.725892zM834.818313 400.104793l0-354.803795c0-38.612413-31.414477-70.02689-70.02689-70.02689l-154.058748 0L610.732675 195.357596c0 33.096792-26.926256 60.023048-60.023048 60.023048l-94.0357 0c-33.096792 0-60.023048-26.926256-60.023048-60.023048l0-220.084511L260.59925-24.726915c-38.612413 0-70.02689 31.414477-70.02689 70.02689L190.57236 400.104793c0 1.172709-0.121773 2.314719-0.315178 3.432169l322.113255 276.958846 322.70268-277.348726C834.921667 402.151405 834.818313 401.141402 834.818313 400.104793zM525.411451 722.052273c-7.502881 6.445806-18.587334 6.446829-26.086122-0.00307L104.223736 382.336104l0 52.726875 407.081439 349.870436 407.176606-349.9523 0.521886-51.205219L525.411451 722.052273z"  horiz-adv-x="1024" />

    
    <glyph glyph-name="qianbaozhifumaijia" unicode="&#59265;" d="M640 448 288 448C276.608 448 266.112 450.88 256 454.464L256 192c0-35.392 28.608-64 64-64l320 0c35.392 0 64 28.608 64 64L704 384C704 419.392 675.392 448 640 448zM608 256l-64 0C526.336 256 512 270.336 512 288S526.336 320 544 320l64 0C625.664 320 640 305.664 640 288S625.664 256 608 256zM480 832C214.848 832 0 617.152 0 352S214.848-128 480-128 960 86.848 960 352 745.152 832 480 832zM768 192c0-70.656-57.344-128-128-128L320 64c-70.656 0-128 57.344-128 128L192 544c0 4.416 0.896 8.64 2.496 12.416C200.896 603.328 239.36 640 288 640l384 0C689.664 640 704 625.664 704 608S689.664 576 672 576l-384 0C270.336 576 256 561.664 256 544S270.336 512 288 512L640 512c70.656 0 128-57.344 128-128L768 192z"  horiz-adv-x="1024" />

    
    <glyph glyph-name="sousuo" unicode="&#58901;" d="M911.182027-2.238738 755.794004 166.304909c-0.11768 0.12382-0.25378 0.208754-0.370437 0.330528 73.567529 70.137407 119.567189 168.960133 119.567189 278.395568 0 212.18254-172.626639 384.805086-384.804063 384.805086-212.18561 0-384.806109-172.621523-384.806109-384.805086 0-212.18254 172.621523-384.804063 384.806109-384.804063 75.575256 0 146.07082 21.988804 205.589378 59.774385 1.055029-1.937119 2.270716-3.800559 3.836375-5.496178l155.39007-168.539554c10.211573-11.081383 27.482935-11.784394 38.561247-1.571798l16.054651 14.806217C920.702867-30.585343 921.395646-13.319098 911.182027-2.238738zM154.504398 445.031005c0 185.094602 150.585647 335.681272 335.681272 335.681272 185.090509 0 335.681272-150.58667 335.681272-335.681272 0-185.094602-150.590763-335.681272-335.681272-335.681272C305.090045 109.34871 154.504398 259.936403 154.504398 445.031005z"  horiz-adv-x="1024" />

    
    <glyph glyph-name="dingwei1" unicode="&#58903;" d="M515.417331-82.654232c-58.611909-0.358157-352.582197 443.447694-352.582197 591.852676 0 196.158588 157.851121 355.080088 352.582197 355.080088 194.685028 0 352.537172-158.920476 352.537172-355.080088C867.954503 362.747977 573.099055-83.01239 515.417331-82.654232zM515.417331 824.013479c-172.369789 0-312.049039-140.391471-312.049039-313.38957 0-131.126456 260.158205-533.059642 312.049039-532.87954 51.045583-0.181125 312.048015 403.532613 312.048015 532.87954C827.465346 683.622008 687.744141 824.013479 515.417331 824.013479zM515.417331 361.148549c-81.151251 0-146.938584 66.276473-146.938584 148.049894 0 81.598436 65.787332 147.874909 146.938584 147.874909 81.108273 0 146.895605-66.276473 146.895605-147.874909C662.312936 427.425022 596.52458 361.148549 515.417331 361.148549zM515.417331 604.517369c-51.715849 0-93.622284-42.045605-93.622284-93.89346 0-52.022841 41.907459-94.069469 93.622284-94.069469 51.66673 0 93.580329 42.045605 93.580329 94.069469C608.99766 562.471764 567.084061 604.517369 515.417331 604.517369z"  horiz-adv-x="1024" />

    
    <glyph glyph-name="wodekefu" unicode="&#59019;" d="M884.165 444.506c-2.494 203.504-168.046 367.753-372.161 367.753s-369.666-164.249-372.165-367.753c-34.163-27.314-56.096-69.25-56.096-116.37 0-82.254 66.697-148.969 148.96-148.969 35.899 0 68.818 12.726 94.534 33.857l-70.18 261.923c-7.949 1.294-16.045 2.155-24.353 2.155-5.474 0-10.855-0.339-16.183-0.926 17.954 147.35 143.268 261.601 295.488 261.601 152.199 0 277.532-114.25 295.481-261.601-5.306 0.583-10.705 0.926-16.18 0.926-8.305 0-16.421-0.863-24.375-2.155l-70.159-261.801c19.847-16.295 43.981-27.559 70.459-31.868-35.138-37.751-79.825-66.511-130.378-82.068l-6.164-6.156c-15.77 28.99-46.122 48.892-81.442 48.892-51.427 0-93.102-41.674-93.102-93.118 0-51.431 41.673-93.104 93.102-93.104 42.211 0 77.419 28.27 88.852 66.758 102.752 25.189 188.829 92.829 238.272 183.482 38.595 26.917 63.899 71.562 63.899 122.175-0.002 47.108-21.955 89.058-56.102 116.371z"  horiz-adv-x="1024" />

    
    <glyph glyph-name="xiazai5" unicode="&#58885;" d="M993.924741-44.790519l-172.86637 172.86637C888.452741 207.435852 929.185185 310.139259 929.185185 422.418963c0 251.354074-203.757037 455.111111-455.111111 455.111111s-455.111111-203.757037-455.111111-455.111111 203.757037-455.111111 455.111111-455.111111c111.767704 0 214.072889 40.353185 293.281185 107.216593l172.942222-172.942222c14.810074-14.810074 38.817185-14.810074 53.627259 0C1008.734815-83.607704 1008.734815-59.600593 993.924741-44.790519zM474.074074 43.159704c-209.464889 0-379.259259 169.79437-379.259259 379.259259s169.79437 379.259259 379.259259 379.259259 379.259259-169.79437 379.259259-379.259259S683.538963 43.159704 474.074074 43.159704z"  horiz-adv-x="1024" />

    
    <glyph glyph-name="zhanghuyue" unicode="&#58895;" d="M511.979-121.064c-313.562 0-445.086 112.16-445.086 342.657 0 190.952 149.141 390.228 329.94 453.095h230.295c180.805-62.867 329.94-262.142 329.94-453.095-0.001-230.496-131.525-342.657-445.090-342.657zM635.327 257.694v0.077c20.809 0.109 37.641 17.015 37.641 37.841 0 20.846-16.829 37.733-37.641 37.864v0.090h-76.342c0.149 0.851-0.101 1.609-0.027 2.46l89.472 91.462c14.595 16.442 7.169 30.038-7.582 44.945-14.843 14.983-39.102 18.126-51.095 5.068l-76.934-82.011-83.101 83.103c-10.516 10.506-30.973 7.083-45.694-7.639-14.734-14.742-18.145-35.216-7.639-45.723l84.991-84.97c-1.59-2.033-2.62-4.292-3.236-6.697h-69.073v-0.070c-0.064 0-0.132 0-0.194 0-20.92 0-37.881-16.944-37.881-37.881 0-20.898 16.961-37.878 37.881-37.878 0.063 0 0.13 0.038 0.194 0.038v-0.077h75.712v-37.731h-75.712v-0.11c-0.064 0-0.132 0-0.194 0-20.92 0-37.881-16.944-37.881-37.879 0-20.9 16.961-37.881 37.881-37.881 0.063 0 0.13 0.038 0.194 0.038v-0.038h75.712v-38.139h0.785c-0.593-2.958-0.933-6.048-0.933-9.21 0-26.154 21.196-47.35 47.348-47.35 26.156 0 47.35 21.197 47.35 47.35 0 3.16-0.344 6.252-0.935 9.21h0.443v38.139l76.492 0.038c20.809 0.131 37.641 17.017 37.641 37.844 0 20.843-16.832 37.731-37.641 37.86v0.131h-76.492v37.73h76.492zM691.905 825.93l-7.96-9.95c-0.177-0.185-0.298-0.406-0.474-0.591l-67.324-84.156h-227.277l-67.197 84.011c-0.499 0.482-0.823 1.071-1.285 1.59l-7.278 9.1 1.284 2.571c-0.619 2.332-1.442 4.606-1.442 7.121 0 12.059 7.584 22.249 18.2 26.393l0.898 1.796c0 0 93.101 18.625 170.457 18.939 80.958 0.332 170.459-18.939 170.459-18.939l0.918-1.813c10.55-4.181 18.069-14.354 18.069-26.374 0-2.48-0.815-4.683-1.405-6.954l1.356-2.74z"  horiz-adv-x="1024" />

    
    <glyph glyph-name="huidaodingbu" unicode="&#59044;" d="M511.99872 896C229.23008 896 0 666.76864 0 384c0-282.76992 229.23008-512 512-512 282.7712 0 512 229.23008 512 512C1024 666.76864 794.76992 896 511.99872 896zM743.37024 291.00032c-8.61696 0-16.47744 3.49312-22.1376 9.13792L542.752 478.53824l0-414.38592c0-17.24544-13.98528-31.2448-31.24608-31.2448-17.27744 0-31.27552 14.00064-31.27552 31.2448l0 0.02944L480.2304 477.568 303.33952 300.6592c-5.7088-5.96736-13.7536-9.67552-22.67904-9.67552-17.35168 0-31.41376 14.06208-31.41376 31.4304 0 8.6144 3.49184 16.43008 9.09312 22.0928l230.90816 230.9376c5.72288 6.03136 13.76768 9.81504 22.74048 9.81504 8.8128 0 16.79872-3.67744 22.47552-9.53856L765.61408 344.5376l0-0.02944c5.64736-5.6448 9.13792-13.47712 9.13792-22.12224C774.752 305.04704 760.70656 291.00032 743.37024 291.00032zM772.9216 614.1376 251.07712 614.1376c-17.2608 0-31.27552 14.03008-31.27552 31.2768 0 17.2928 14.01472 31.27808 31.27552 31.27808l521.84576 0c17.25952 0 31.27808-13.98528 31.27808-31.27808C804.19968 628.16896 790.1824 614.1376 772.9216 614.1376z"  horiz-adv-x="1024" />

    
    <glyph glyph-name="fenxiang" unicode="&#58896;" d="M748.33973 768.018164 272.978185 768.018164c-80.101339 0-145.035234-64.934918-145.035234-145.035234l0-475.361545c0-80.101339 64.934918-145.035234 145.035234-145.035234l475.361545 0c80.101339 0 145.035234 64.934918 145.035234 145.035234L893.374964 622.98293C893.374964 703.084269 828.441069 768.018164 748.33973 768.018164zM578.372663 274.49498l0 101.470019c-210.822566 35.293831-322.509275-247.553119-322.509275-247.553119 0 438.249299 322.509275 411.890978 322.509275 411.890978L578.372663 642.876002l189.175547-184.189999L578.372663 274.49498z"  horiz-adv-x="1024" />

    
    <glyph glyph-name="xiangshang" unicode="&#59057;" d="M944.43385 100.195236 535.669072 505.220852c-0.592494 0.592494-1.407046 0.779759-2.033309 1.333368-0.147356 0.146333-0.186242 0.37146-0.333598 0.518816-14.543228 14.358009-37.97694 14.284331-52.373835-0.225127L75.942623 98.122017c-14.396895-14.544251-14.290471-37.938054 0.220011-52.341089 7.218402-7.139607 16.657378-10.731412 26.061562-10.731412 9.511631 0 19.061125 3.665483 26.279526 10.957563l379.226021 382.66433 384.590192-381.037273c7.218402-7.144724 16.616446-10.737552 26.055422-10.737552 9.550517 0 19.061125 3.665483 26.285666 10.957563C959.057919 62.362582 958.943308 85.798341 944.43385 100.195236L944.43385 100.195236zM944.43385 100.195236"  horiz-adv-x="1024" />

    
    <glyph glyph-name="shaixuan1" unicode="&#59059;" d="M597.265067-59.733333c-0.273067 0.477867-0.4096 1.058133-0.785067 1.399467-7.5776 6.621867-10.717867 15.0528-10.683733 25.019733 0.1024 18.466133 0.034133 36.9664 0.034133 55.432533 0 126.600533 0.068267 253.201067-0.1024 379.8016-0.034133 12.014933 3.925333 21.367467 12.356267 29.764267 83.387733 83.182933 166.673067 166.536533 249.9584 249.821867 6.997333 7.031467 12.6976 14.813867 15.496533 24.610133 8.430933 29.0816-13.175467 59.323733-43.485867 60.654933-1.604267 0.068267-3.242667 0.068267-4.846933 0.068267-202.171733 0-404.2752 0-606.446933 0-22.6304 0-40.618667-12.049067-47.479467-32.290133C155.886933 718.609067 158.4128 703.5904 168.584533 690.107733c3.3792-4.437333 7.133867-8.567467 11.0592-12.4928 79.394133-79.496533 158.8224-158.993067 238.3872-238.353067 8.328533-8.2944 12.151467-17.6128 12.117333-29.3888-0.2048-86.254933-0.170667-172.544-0.068267-258.7648 0-13.175467-4.744533-23.4496-16.554667-29.730133-18.8416-10.0352-42.359467 2.935467-44.100267 24.132267-0.170667 2.321067-0.170667 4.7104-0.170667 7.031467 0 81.442133-0.034133 162.850133 0.068267 244.258133 0 3.549867-1.024 5.973333-3.515733 8.430933-78.370133 78.267733-156.808533 156.501333-234.939733 235.008C109.568 661.6064 97.757867 687.7184 97.655467 718.267733 97.4848 769.4336 131.822933 811.963733 178.5856 823.842133 188.416 826.333867 198.8608 827.528533 208.9984 827.562667 411.0336 827.733333 613.000533 827.733333 815.0016 827.665067c42.2912 0 74.683733-18.261333 96.733867-54.408533 21.9136-35.976533 18.875733-86.050133-7.031467-119.261867-4.5056-5.768533-9.352533-11.332267-14.5408-16.4864-79.940267-80.042667-159.914667-160.017067-239.957333-239.889067-2.594133-2.594133-3.652267-5.085867-3.652267-8.8064 0.068267-138.069333-0.034133-276.104533 0.2048-414.139733 0.034133-13.141333-1.365333-25.088-11.605333-34.440533C622.4896-59.733333 609.8944-59.733333 597.265067-59.733333z"  horiz-adv-x="1024" />

    
    <glyph glyph-name="huidaodingbu1" unicode="&#58906;" d="M511.99872 896C229.23008 896 0 666.76864 0 384c0-282.76992 229.23008-512 512-512 282.7712 0 512 229.23008 512 512C1024 666.76864 794.76992 896 511.99872 896zM743.37024 291.00032c-8.61696 0-16.47744 3.49312-22.1376 9.13792L542.752 478.53824l0-414.38592c0-17.24544-13.98528-31.2448-31.24608-31.2448-17.27744 0-31.27552 14.00064-31.27552 31.2448l0 0.02944L480.2304 477.568 303.33952 300.6592c-5.7088-5.96736-13.7536-9.67552-22.67904-9.67552-17.35168 0-31.41376 14.06208-31.41376 31.4304 0 8.6144 3.49184 16.43008 9.09312 22.0928l230.90816 230.9376c5.72288 6.03136 13.76768 9.81504 22.74048 9.81504 8.8128 0 16.79872-3.67744 22.47552-9.53856L765.61408 344.5376l0-0.02944c5.64736-5.6448 9.13792-13.47712 9.13792-22.12224C774.752 305.04704 760.70656 291.00032 743.37024 291.00032zM772.9216 614.1376 251.07712 614.1376c-17.2608 0-31.27552 14.03008-31.27552 31.2768 0 17.2928 14.01472 31.27808 31.27552 31.27808l521.84576 0c17.25952 0 31.27808-13.98528 31.27808-31.27808C804.19968 628.16896 790.1824 614.1376 772.9216 614.1376z"  horiz-adv-x="1024" />

    
    <glyph glyph-name="huidaodingbu2" unicode="&#58908;" d="M511.99872 896C229.23008 896 0 666.76864 0 384c0-282.76992 229.23008-512 512-512 282.7712 0 512 229.23008 512 512C1024 666.76864 794.76992 896 511.99872 896zM743.37024 291.00032c-8.61696 0-16.47744 3.49312-22.1376 9.13792L542.752 478.53824l0-414.38592c0-17.24544-13.98528-31.2448-31.24608-31.2448-17.27744 0-31.27552 14.00064-31.27552 31.2448l0 0.02944L480.2304 477.568 303.33952 300.6592c-5.7088-5.96736-13.7536-9.67552-22.67904-9.67552-17.35168 0-31.41376 14.06208-31.41376 31.4304 0 8.6144 3.49184 16.43008 9.09312 22.0928l230.90816 230.9376c5.72288 6.03136 13.76768 9.81504 22.74048 9.81504 8.8128 0 16.79872-3.67744 22.47552-9.53856L765.61408 344.5376l0-0.02944c5.64736-5.6448 9.13792-13.47712 9.13792-22.12224C774.752 305.04704 760.70656 291.00032 743.37024 291.00032zM772.9216 614.1376 251.07712 614.1376c-17.2608 0-31.27552 14.03008-31.27552 31.2768 0 17.2928 14.01472 31.27808 31.27552 31.27808l521.84576 0c17.25952 0 31.27808-13.98528 31.27808-31.27808C804.19968 628.16896 790.1824 614.1376 772.9216 614.1376z"  horiz-adv-x="1024" />

    
    <glyph glyph-name="hongbao1" unicode="&#58915;" d="M323.693 574.327l0-428.196c0-10.581 8.615-19.197 19.197-19.197l343.354 0c10.581 0 19.197 8.615 19.197 19.197l0 429.616-190.683-84.35-191.065 82.93zM630.129 436.866c5.066-4.656 5.421-12.602 0.765-17.667l-83.231-81.538 73.905 0 0-25.013-94.495 0 0-26.365 61.139 0 0-25.013-61.139 0 0-74.902-25.013 0 0 74.902-61.139 0 0 25.013 61.139 0 0 26.365-94.495 0 0 25.013 73.905 0-83.231 81.538c-4.656 5.066-4.301 13.025 0.765 17.667 5.066 4.656 13.025 4.301 17.667-0.765l97.894-95.901 97.894 95.901c4.656 5.079 12.602 5.421 17.667 0.765zM705.331 624.681c-0.655 9.995-8.915 17.954-19.074 17.954l-32.809 0 0 0.068-310.559-0.068c-10.581 0-19.197-8.615-19.197-19.197l0-0.233 190.697-83.026 190.942 84.5zM514.649 875.002c-270.308 0-490.223-219.915-490.223-490.223s219.915-490.223 490.223-490.223c270.308 0 490.223 219.915 490.223 490.223s-219.915 490.223-490.223 490.223zM746.414 146.131c0-33.178-26.993-60.157-60.157-60.157l-343.367 0c-33.178 0-60.157 26.993-60.157 60.157l0 477.307c0 33.178 26.993 60.157 60.157 60.157l343.354 0c33.178 0 60.157-26.993 60.157-60.157l0-477.307z"  horiz-adv-x="1024" />

    
    <glyph glyph-name="wode" unicode="&#58921;" d="M497.377 344.747c69.509 37.109 116.969 110.333 116.969 194.478 0 121.515-98.864 220.393-220.379 220.393s-220.379-98.864-220.379-220.393c0-84.828 48.251-158.487 118.675-195.311-153.409-44.947-267.168-186.354-269.366-353.513l40.96-0.532c2.375 180.907 151.498 328.076 332.418 328.076s330.042-147.169 332.404-328.076l40.96 0.532c-2.212 168.209-117.405 310.34-272.261 354.345zM214.548 539.225c0 98.932 80.486 179.433 179.419 179.433s179.419-80.5 179.419-179.433-80.486-179.419-179.419-179.419-179.419 80.486-179.419 179.419zM729.47 344.747c69.523 37.109 116.969 110.333 116.969 194.492 0 119.644-95.887 217.102-214.821 220.092l0-40.96c96.352-2.963 173.861-82.07 173.861-179.132s-77.51-176.169-173.861-179.146l0-42.229c179.445-1.747 326.82-148.179 329.168-327.994l40.96 0.532c-2.198 168.209-117.405 310.34-272.275 354.345z"  horiz-adv-x="1024" />

    
    <glyph glyph-name="shouru-copy" unicode="&#59138;" d="M2.323 384c0 281.487 228.19 509.677 509.677 509.677s509.677-228.19 509.677-509.677-228.19-509.677-509.677-509.677-509.677 228.19-509.677 509.677v0zM664.053 454.704c-102.278 0.011-185.336-83.036-185.402-185.369-0.055-102.377 83.201-185.567 185.677-185.523 101.981 0.044 185.072 83.135 185.226 185.237 0.143 102.399-83.036 185.645-185.501 185.655zM689.881 280.605c9.786 0 19.572-0.11 29.357 0.055 3.112 0.055 4.002-0.99 3.892-3.991-0.209-5.619-0.055-11.237-0.055-17.296h-49.237v-27.488h48.918v-21.155h-49.016c-0.088-1.792-0.209-3.211-0.209-4.629-0.011-10.896-0.099-21.804 0.044-32.7 0.044-3.068-0.913-4.035-3.958-3.936-6.234 0.209-12.48 0.209-18.714 0-3.013-0.099-4.002 0.792-3.947 3.892 0.176 10.896 0.066 21.804 0.066 32.7v4.431h-51.315v21.188h51.084l-0 27.544h-51.37c0 6.784-0.11 13.117 0.154 19.44 0.033 0.693 2.232 1.836 3.442 1.847 11.743 0.143 23.486 0.088 35.229 0.088 1.33 0 2.65 0 4.772 0-17.933 30.831-35.526 61.090-53.492 91.975 1.924 0.121 3.178 0.275 4.442 0.275 6.85 0.022 13.7-0.176 20.55 0.088 3.365 0.132 5.212-0.957 6.784-3.991 14.228-27.323 28.61-54.559 42.958-81.827 0.11-0.209 0.286-0.385 0.253-0.341 14.822 27.554 29.665 55.053 44.377 82.651 1.418 2.661 3.035 3.573 5.959 3.486 6.597-0.209 13.205-0.055 19.813-0.077 1.177 0 2.353-0.11 4.211-0.209-18.098-30.809-35.889-61.101-54.053-92.030 3.53 0.010 6.301 0.010 9.061 0.010zM300.198 664.747c4.937-3.573 9.984-7.642 15.118-12.205 5.146-4.563 9.775-9.819 13.887-15.778 2.056-3.178 4.53-6.751 7.411-10.72 2.881-3.969 5.553-7.939 8.027-11.908 2.881-4.365 5.762-8.928 8.642-13.689l127.787 0c2.881 3.969 5.553 8.136 8.027 12.502 2.056 3.573 4.321 7.147 6.795 10.72 2.463 3.573 4.728 6.751 6.795 9.522 4.112 5.553 8.235 10.819 12.348 15.778 4.112 4.959 10.083 9.819 17.9 14.58 3.299 1.99 6.069 4.563 8.334 7.741 2.265 3.178 3.705 6.344 4.321 9.522 0.616 3.178 0.209 6.256-1.231 9.225-1.44 2.98-4.211 5.256-8.334 6.839-3.705 1.188-6.894 1.583-9.566 1.188-2.672-0.396-5.355-1.089-8.027-2.089-2.672-0.99-5.454-2.089-8.334-3.277-2.881-1.188-6.377-1.781-10.5-1.781-4.112 0-7.51 0.693-10.182 2.089-2.672 1.385-5.146 3.079-7.411 5.058-2.265 1.979-4.629 4.068-7.103 6.256-2.463 2.188-5.762 3.87-9.874 5.058-8.224 3.178-14.811 3.771-19.747 1.781-4.937-1.99-9.874-5.157-14.822-9.522-4.112-3.969-7.411-6.751-9.874-8.334-1.231-0.792-2.265-1.187-3.090-1.187-2.474 1.187-4.728 2.573-6.795 4.167-2.056 1.198-4.013 2.485-5.861 3.87-1.847 1.385-3.595 3.068-5.245 5.058-3.288 3.178-8.224 5.256-14.811 6.256-6.586 0.99-12.546-0.099-17.9-3.277-6.993-4.365-11.93-8.038-14.811-11.017-2.881-2.98-7.202-5.058-12.963-6.245-3.288-0.792-6.894-0.594-10.797 0.594-3.903 1.187-7.917 2.375-12.040 3.573-4.112 1.188-8.027 1.979-11.732 2.386-3.727 0.418-7.015-0.385-9.896-2.364-5.762-4.365-7.609-9.621-5.553-15.778 2.057-6.148 5.763-11.018 11.107-14.592zM591.682 471.549c-0.352 0.385-0.682 0.814-1.034 1.198-10.489 11.314-20.682 21.133-30.556 29.467-11.93 9.522-22.43 18.56-31.479 27.092-9.060 8.532-16.669 16.174-22.837 22.925-7.411 7.543-13.579 14.481-18.516 20.836h-138.914c-5.355-6.751-11.523-13.887-18.516-21.43-5.762-6.751-12.963-14.195-21.606-22.331-8.642-8.136-18.318-16.768-29.017-25.894-12.348-10.325-23.761-22.024-34.261-35.13-10.5-13.106-19.242-27.488-26.235-43.167s-11.831-32.447-14.503-50.314c-2.672-17.856-2.166-36.515 1.539-55.966 3.299-17.461 10.083-35.031 20.374-52.689s24.179-33.635 41.672-47.928c17.493-14.283 38.791-25.905 63.893-34.833 25.102-8.928 53.91-13.392 86.423-13.392 19.033 0 36.691 1.572 53.272 4.365-14.184 28.687-22.353 60.848-22.342 94.977 0.067 93.251 59.64 172.45 142.643 202.214z"  horiz-adv-x="1024" />

    
    <glyph glyph-name="shouye1" unicode="&#58910;" d="M816.4 350.9l0-337.4c0-28.7-23.2-51.9-51.9-51.9L609.2-38.4 609.2 222.1c0 14.3-11.6 25.9-25.9 25.9L427.6 248c-14.3 0-25.9-11.6-25.9-25.9l0-260.4L246.3-38.3c-28.7 0-51.9 23.2-51.9 51.9L194.4 350.9 142 350.9l0-389.1c0-28.7 16.7-51.9 45.4-51.9l221.1 0 0 0.8 45.1 0L453.6 209.1l103 0 0.8-298.3 45.1 0 0-0.8 221.1 0c28.7 0 45.4 23.2 45.4 51.9L869 350.9 816.4 350.9zM505.4 832.2c-6.9 0-13.8-2.5-18.6-7.6L41.7 364.3c-10-10.3-9.7-26.7 0.6-36.7 5-4.9 11.5-7.3 18-7.3 6.8 0 13.6 2.6 18.7 7.9l426.4 441.1 426.4-441.1c5.1-5.3 11.9-7.9 18.6-7.9 6.5 0 13 2.4 18 7.3 10.3 10 10.6 26.4 0.6 36.7L524.1 824.7C519.2 829.7 512.3 832.2 505.4 832.2L505.4 832.2z"  horiz-adv-x="1024" />

    
    <glyph glyph-name="sousuo-m" unicode="&#58890;" d="M952.256-15.552l-152.608 163.296c61.856 74.496 95.872 167.36 95.872 265.088 0 229.344-186.624 415.968-416.032 415.968-229.344-0.032-415.968-186.624-415.968-416 0-229.344 186.624-415.936 416-415.936 60.096 0.032 118.048 12.576 172.224 37.248 16.096 7.328 23.2 26.304 15.872 42.368-7.328 16.16-26.368 23.296-42.368 15.872-45.856-20.864-94.88-31.456-145.76-31.488-194.080 0-351.968 157.888-351.968 351.936 0 194.080 157.888 351.968 351.968 351.968 194.112 0 352.032-157.888 352.032-351.968 0-91.328-34.848-177.92-98.080-243.712-12.256-12.736-11.84-32.992 0.864-45.248 0.96-0.928 2.208-1.28 3.264-2.080 0.896-1.28 1.312-2.752 2.4-3.904l165.504-177.088c6.272-6.752 14.816-10.144 23.36-10.144 7.84 0 15.68 2.848 21.856 8.64 12.928 12.032 13.632 32.256 1.568 45.184z"  horiz-adv-x="1024" />

    
    <glyph glyph-name="dingdan" unicode="&#58962;" d="M950.738179 74.912442 738.22933-120.822523C733.272509-125.382798 726.729505-127.920691 719.988228-127.920691L149.715835-127.920691C103.121713-127.920691 65.211943-90.169539 65.211943-43.77369L65.211943 811.615072C65.211943 858.01092 103.121713 895.722418 149.715835 895.722418L874.878984 895.722418C921.473105 895.722418 959.343221 858.01092 959.343221 811.615072L959.343221 94.541455C959.343221 87.086396 956.250165 79.948573 950.738179 74.912442ZM905.611277 811.615072C905.611277 828.507919 891.811486 842.228401 874.878984 842.228401L149.715835 842.228401C132.783333 842.228401 118.943887 828.507919 118.943887 811.615072L118.943887-43.77369C118.943887-60.666538 132.783333-74.387019 149.715835-74.387019L709.440112-74.387019 905.611277 106.239554 905.611277 811.615072ZM687.986988-45.756419C673.116524-45.756419 661.101189-33.780738 661.101189-18.989583L661.101189 149.304419C661.101189 164.095574 673.116524 176.071254 687.986988 176.071254L861.872284 176.071254C876.742749 176.071254 888.758084 164.095574 888.758084 149.304419 888.758084 134.513263 876.742749 122.537583 861.872284 122.537583L714.872788 122.537583 714.872788-18.989583C714.872788-33.780738 702.817798-45.756419 687.986988-45.756419ZM717.569299 318.629439C717.529644 318.629439 717.48999 318.629439 717.48999 318.629439L306.946211 319.700112C292.115401 319.779421 280.100066 331.755102 280.179375 346.546257 280.21903 361.258103 292.234365 373.233784 307.02552 373.233784 307.065174 373.233784 307.104829 373.233784 307.104829 373.233784L717.648608 372.123456C732.479418 372.083801 744.494753 360.068466 744.455098 345.277311 744.375789 330.565465 732.360454 318.629439 717.569299 318.629439ZM717.569299 478.199435C717.529644 478.199435 717.48999 478.199435 717.48999 478.199435L306.946211 479.309763C292.115401 479.349417 280.100066 491.364752 280.179375 506.155908 280.21903 520.867754 292.234365 532.80378 307.02552 532.80378 307.065174 532.80378 307.104829 532.80378 307.104829 532.80378L717.648608 531.733106C732.479418 531.653797 744.494753 519.678116 744.455098 504.886961 744.375789 490.135461 732.360454 478.199435 717.569299 478.199435ZM717.569299 637.253921C717.529644 637.253921 717.48999 637.253921 717.48999 637.253921L306.946211 638.364249C292.115401 638.403903 280.100066 650.419239 280.179375 665.170739 280.21903 679.92224 292.234365 691.858266 307.02552 691.858266 307.065174 691.858266 307.104829 691.858266 307.104829 691.858266L717.648608 690.747938C732.479418 690.708283 744.494753 678.732603 744.455098 663.941448 744.375789 649.189947 732.360454 637.253921 717.569299 637.253921Z"  horiz-adv-x="1024" />

    
    <glyph glyph-name="jinbishangchengyuan" unicode="&#58912;" d="M512 896C228.8 896 0 667.2 0 384s228.8-512 512-512 512 228.8 512 512S795.2 896 512 896zM512 97.6c-76.8 0-148.8 30.4-203.2 84.8-4.8 4.8-6.4 11.2-6.4 17.6 0 12.8 11.2 24 24 24 6.4 0 12.8-3.2 17.6-6.4 44.8-44.8 105.6-70.4 169.6-70.4C643.2 145.6 752 252.8 752 384S643.2 624 512 624c-131.2 0-238.4-107.2-238.4-238.4 0-3.2 0-4.8 0-8l0 0c0-6.4-1.6-14.4-6.4-19.2-4.8-4.8-11.2-6.4-17.6-6.4-12.8 0-24 11.2-24 24l0 0c0 3.2 0 6.4 0 9.6 0 156.8 129.6 286.4 286.4 286.4S798.4 540.8 798.4 384C798.4 227.2 668.8 97.6 512 97.6zM393.6 516.8c-4.8 4.8-6.4 11.2-6.4 17.6 0 6.4 3.2 12.8 6.4 17.6s11.2 6.4 17.6 6.4c6.4 0 12.8-3.2 17.6-6.4l84.8-84.8 84.8 84.8c4.8 4.8 11.2 6.4 17.6 6.4 12.8 0 24-11.2 24-24 0-6.4-3.2-12.8-6.4-17.6l-83.2-83.2 88 0c11.2 0 20.8-9.6 20.8-20.8 0-11.2-9.6-20.8-20.8-20.8l-102.4 0 0-41.6 81.6 0c11.2 0 20.8-9.6 20.8-20.8 0-11.2-9.6-20.8-20.8-20.8l-81.6 0 0-81.6c0-11.2-9.6-20.8-20.8-20.8s-20.8 9.6-20.8 20.8l0 81.6-81.6 0c-11.2 0-20.8 9.6-20.8 20.8 0 11.2 9.6 20.8 20.8 20.8l81.6 0 0 41.6-102.4 0c-11.2 0-20.8 9.6-20.8 20.8 0 11.2 9.6 20.8 20.8 20.8l86.4 0L393.6 516.8z"  horiz-adv-x="1024" />

    
    <glyph glyph-name="changyonglogo40" unicode="&#59170;" d="M517.741259 219.542414c-67.105351-3.637854-126.141932 36.759205-151.879106 91.833545-28.284183 60.517305-22.948665 120.268154 17.433044 173.59264 38.496779 50.837852 92.007507 71.033823 155.378813 63.46545 31.457456-3.75758 59.190077-16.672728 83.367733-37.193087 13.117762-11.140735 12.825097-16.119119-1.718131-24.465205-12.636808-7.255241-25.337061-14.395872-37.908378-21.765723-34.756595-20.361747-69.728084-40.370453-104.07945-61.402465-18.395976-11.256368-22.074761-29.214369-11.792581-47.845705 11.123338-20.149922 32.68747-24.840758 55.534827-11.631922 67.890226 39.261189 135.553279 78.912257 203.657376 117.804033 11.268648 6.433526 12.506848 12.979616 7.499811 23.883967-17.61724 38.361703-43.562145 69.872371-78.328973 93.444229-76.822666 52.086285-158.791539 60.431348-242.733347 20.86419-83.740216-39.473013-129.229247-108.788705-136.791479-200.144366-6.265704-75.734892 22.550599-139.857305 77.215616-192.627159 76.216869-73.571622 203.592908-85.148285 291.139823-26.002211 22.796192 15.395642 22.796192 15.395642 8.662287 38.911218-15.282055 25.418926-30.446429 30.143531-56.975643 17.425881C570.320779 225.659739 544.299125 217.842703 517.741259 219.542414zM748.179582 327.166597c-1.26276 18.193361-11.128455 32.971949-19.642362 48.208978-2.7793 4.976338-7.238868 3.061732-11.218506 0.791016-15.604396-8.933463-31.160697-17.943674-46.883797-26.660196-6.683213-3.705392-7.865131-8.192589-4.001127-14.705933 8.954953-15.093766 17.844413-30.227442 26.429952-45.528939 3.730974-6.647397 8.205892-8.16803 14.644535-4.097318 9.402137 5.942339 19.108197 11.453866 28.184923 17.853623C743.767086 308.727643 748.511133 316.736037 748.179582 327.166597z"  horiz-adv-x="1024" />

    
    <glyph glyph-name="shouji1" unicode="&#58909;" d="M755.593 863.702h-487.186c-59.523 0-107.943-48.42-107.943-107.943v-743.518c0-59.523 48.42-107.943 107.943-107.943h487.186c59.523 0 107.943 48.42 107.943 107.943v743.518c0 59.523-48.419 107.943-107.943 107.943zM268.406 791.74h487.186c19.853 0 35.981-16.128 35.981-35.981v-575.136h-559.149v575.136c0 19.853 16.128 35.981 35.981 35.981zM755.593-23.74h-487.186c-19.853 0-35.981 16.128-35.981 35.981v96.418h559.149v-96.418c0-19.853-16.128-35.981-35.981-35.981zM355.583 672.903h316.909c19.888 0 35.981 16.094 35.981 35.981s-16.094 35.981-35.981 35.981h-316.909c-19.888 0-35.981-16.094-35.981-35.981 0-19.888 16.094-35.981 35.981-35.981zM465.482 42.004c0-26.823 21.745-48.569 48.569-48.569s48.569 21.745 48.569 48.569c0 26.823-21.745 48.569-48.569 48.569-26.823 0-48.569-21.745-48.569-48.569z"  horiz-adv-x="1024" />

    
    <glyph glyph-name="shaixuan2" unicode="&#58949;" d="M892.928 744.448c-4.096 8.192-12.288 12.288-20.48 12.288L147.456 756.736c-8.192 0-16.384-4.096-20.48-12.288-4.096-8.192 0-16.384 4.096-20.48L405.504 445.44c4.096-4.096 4.096-8.192 4.096-12.288l0-339.968c0-8.192 4.096-12.288 8.192-16.384l65.536-49.152c8.192-8.192 20.48-4.096 28.672 4.096 8.192 8.192 4.096 20.48-4.096 28.672l-57.344 40.96 0 331.776c0 16.384-4.096 28.672-16.384 40.96L196.608 715.776l626.688 0-233.472-241.664c-12.288-12.288-16.384-24.576-16.384-40.96l0-454.656c0-12.288 8.192-20.48 20.48-20.48s20.48 8.192 20.48 20.48L614.4 433.152c0 4.096 0 8.192 4.096 12.288l270.336 278.528C897.024 728.064 897.024 736.256 892.928 744.448z"  horiz-adv-x="1024" />

    
    <glyph glyph-name="jiantou3" unicode="&#58886;" d="M249.355819 361.56333l479.10044-479.135439c13.942373-13.906374 36.478358-13.906374 50.419731 0 13.942373 13.942373 13.942373 36.513357 0 50.455729l-455.709493 455.744491 448.184832 448.22083c13.55039 13.515392 13.55039 35.444405 0 48.958797-13.514392 13.585389-35.444405 13.585389-48.992795 0l-465.479053-465.443055c-1.818918-1.818918-2.709878-4.029819-4.029819-6.132724-1.10495-0.819963-2.460889-1.247944-3.494843-2.281897-13.906374-13.906374-13.906374-36.478358 0-50.384733z"  horiz-adv-x="1024" />

    
    <glyph glyph-name="jiantou4" unicode="&#58887;" d="M256 384l512-512 0 135.776-376.224 376.224 376.224 376.256 0 135.745z"  horiz-adv-x="1024" />

    
    <glyph glyph-name="sousuo6" unicode="&#58898;" d="M414.595711 896c228.94448 0 414.558927-185.590944 414.558927-414.53338 0-98.514971-34.570422-188.914119-91.968766-260.156982l274.008654-273.904421c17.220832-17.244335 17.220832-45.215413 0-62.461792-17.220832-17.254554-45.222567-17.254554-62.44442 0l-274.008654 273.960625c-71.193813-57.423891-161.642011-91.917671-260.146763-91.917671-228.970027 0-414.594694 185.585834-414.594694 414.47922C0.001018 710.409056 185.624662 896 414.595711 896zM414.595711 130.752098c193.434944 0 350.775836 157.315344 350.775836 350.714522 0 193.448229-157.340891 350.753354-350.775836 350.753354-193.468667 0-350.811602-157.305125-350.811602-350.753354C63.783088 288.067441 221.127044 130.752098 414.595711 130.752098z"  horiz-adv-x="1025" />

    
    <glyph glyph-name="shouji2" unicode="&#58880;" d="M751.690546-61.99061 270.384615-61.99061 270.384615 26.400532 322.403363 26.400532 322.403363-9.971863 699.671799-9.971863 699.671799 26.400532 751.690546 26.400532ZM270.361079 831.355701l481.329467 0 0-52.019771-481.329467 0 0 52.019771ZM751.690546 44.690084 270.384615 44.690084 270.384615 754.622062l481.305931 0L751.690546 44.690084zM322.403363 96.709855l377.267413 0L699.670775 702.602292 322.403363 702.602292 322.403363 96.709855zM459.919343 31.91206l102.236476 0 0-26.009374-102.236476 0 0 26.009374Z"  horiz-adv-x="1024" />

    
    <glyph glyph-name="faxian" unicode="&#58979;" d="M864.251158 534.235676c-19.346627 45.74281-47.040363 86.821391-82.308611 122.092709s-76.345806 62.966077-122.091686 82.314751c-47.371914 20.038382-97.68174 30.198789-149.528572 30.198789-51.848878 0-102.157681-10.160407-149.530618-30.198789-45.744857-19.348674-86.820368-47.044456-122.090663-82.314751s-62.961984-76.348875-82.310657-122.092709c-20.034289-47.369867-30.193673-97.674577-30.193673-149.517315 0-51.853995 10.159384-102.165868 30.193673-149.537781 19.34765-45.746904 47.040363-86.825484 82.310657-122.091686 35.270295-35.268248 76.344782-62.958914 122.092709-82.304518 47.369867-20.032242 97.67867-30.189579 149.528572-30.189579 51.846832 0 102.156658 10.157337 149.526525 30.189579 45.746904 19.34458 86.825484 47.036269 122.092709 82.304518 35.268248 35.266202 62.96096 76.343759 82.308611 122.091686 20.036335 47.371914 30.195719 97.683786 30.195719 149.537781C894.446877 436.5611 884.287493 486.865809 864.251158 534.235676zM749.986741 145.042653c-64.008826-64.006779-149.123342-99.256608-239.663428-99.256608-90.541109 0-175.655625 35.249829-239.666498 99.256608-64.012919 64.010873-99.266841 149.128459-99.266841 239.674685 0 90.526783 35.253922 175.638229 99.266841 239.655242 64.017012 64.020082 149.132552 99.277074 239.666498 99.277074 90.532923 0 175.648462-35.255968 239.663428-99.277074 64.014966-64.018036 99.268888-149.128459 99.268888-239.655242C849.255629 294.172135 814.001707 209.053526 749.986741 145.042653zM618.370121 364.436432c4.317329 15.521508 5.350868 32.208563 2.411933 49.109488-9.367345 53.866838-55.799864 92.961228-110.403482 92.961228-2.839675 0-5.691629-0.127913-8.54256-0.345877l-183.243441 113.819279 83.009576-196.894346 0.297782 0.243547c-4.164856-15.530718-4.939499-31.91078-2.103918-48.219211 9.365298-53.859675 55.792701-92.953042 110.393249-92.953042 2.316765 0 4.638647 0.098237 6.963599 0.243547l183.927009-114.242927L618.370121 364.436432zM444.321086 382.852874c-3.064802 17.619286 0.916882 35.379789 11.213389 50.015114 10.29446 14.634302 25.663496 24.38027 43.278689 27.444049 3.829212 0.664126 7.722892 1.00284 11.56643 1.00284 32.580023 0 60.285015-23.346731 65.87943-55.512315 6.326079-36.382629-18.121729-71.126944-54.493102-77.450976-3.831258-0.669242-7.724938-1.004887-11.574616-1.004887C477.617423 327.347722 449.913455 350.689337 444.321086 382.852874z"  horiz-adv-x="1024" />

    
    <glyph glyph-name="iconfontzhizuobiaozhun023103" unicode="&#58985;" d="M561.131489 568.502108c-15.752776 4.199649-32.025391 7.163143-49.132001 7.163143-105.8467 0-191.650925-85.804225-191.650925-191.664228 0-105.832374 85.805248-191.635575 191.650925-191.635575s191.650925 85.804225 191.650925 191.635575c0 17.119913-2.976798 33.405831-7.163143 49.172933l148.891052 284.235576L561.131489 568.502108 561.131489 568.502108zM511.999488 277.53727c-58.800197 0-106.4658 47.675836-106.4658 106.463754 0 58.814524 47.665603 106.463754 106.4658 106.463754 58.802244 0 106.4658-47.64923 106.4658-106.463754C618.466312 325.213106 570.801732 277.53727 511.999488 277.53727L511.999488 277.53727zM980.404598 588.440206c-9.094122 20.833491-33.335223 30.327726-54.139038 21.23565-20.820188-9.092076-30.3134-33.349549-21.223371-54.151317 23.738657-54.327326 35.782971-112.049982 35.782971-171.523515 0-236.440014-192.385659-428.823626-428.824649-428.823626-236.46662 0-428.835905 192.383612-428.835905 428.823626 0 236.437967 192.369286 428.823626 428.835905 428.823626 59.477626 0 117.184933-12.027941 171.523515-35.767622 20.760836-9.121751 45.033659 0.404206 54.124711 21.23565 9.107425 20.803815-0.375553 45.031613-21.223371 54.125735-64.753793 28.312836-133.527133 42.643216-204.425879 42.643216-281.801131 0-511.060605-229.244124-511.060605-511.059582 0-281.788851 229.259474-511.059582 511.060605-511.059582s511.060605 229.27073 511.060605 511.059582C1023.060093 454.898747 1008.717434 523.671063 980.404598 588.440206L980.404598 588.440206z"  horiz-adv-x="1024" />

    
    <glyph glyph-name="xiangxia" unicode="&#59175;" d="M881.975333 646.688841 512 276.713508 142.024667 646.688841 64.322981 568.987155 512 121.311159 959.677019 568.987155Z"  horiz-adv-x="1024" />

    
    <glyph glyph-name="dingdan2" unicode="&#59021;" d="M512 825.37931 847.54432 825.37931C847.498063 825.37931 847.448276-57.342411 847.448276-57.342411 847.448276-57.360154 176.507445-57.37931 176.507445-57.37931 176.567543-57.37931 176.551724 384 176.551724 384L176.507445 610.390087 344.275862 825.37931 512 825.37931ZM298.748398 882.368109 113.369088 644.023278C108.548308 637.825148 105.931034 630.197001 105.931034 622.344828L105.931034 384 105.931034-57.249898C105.931034-96.29071 137.488984-128 176.507445-128L847.49259-128C886.455437-128 918.068966-96.339421 918.068966-57.342411L918.068966 825.342411C918.068966 864.395038 886.53771 896 847.54432 896L512 896 326.62069 896C315.724253 896 305.438155 890.969235 298.748398 882.368109ZM662.068966 401.655172C681.570339 401.655172 697.37931 417.464161 697.37931 436.965517 697.37931 456.466873 681.570339 472.275862 662.068966 472.275862L361.931034 472.275862C342.429678 472.275862 326.62069 456.466873 326.62069 436.965517 326.62069 417.464161 342.429678 401.655172 361.931034 401.655172L662.068966 401.655172ZM723.862069 225.103448C743.363443 225.103448 759.172414 240.912437 759.172414 260.413793 759.172414 279.915149 743.363443 295.724138 723.862069 295.724138L300.137931 295.724138C280.636575 295.724138 264.827586 279.915149 264.827586 260.413793 264.827586 240.912437 280.636575 225.103448 300.137931 225.103448L723.862069 225.103448ZM317.793103 648.685833C317.793103 648.794165 176.507445 648.827586 176.507445 648.827586L176.507445 578.206897 317.798665 578.206897C356.768839 578.206897 388.413793 609.73056 388.413793 648.685833L388.413793 825.37931 317.793103 825.37931 317.793103 648.685833Z"  horiz-adv-x="1024" />

    
    <glyph glyph-name="xiangshang1" unicode="&#58937;" d="M470.92736 650.80832L19.30752 199.1936c-22.64576-22.64576-22.64576-59.4176 0-82.14016 22.64576-22.64576 59.4176-22.64576 82.14016 0l410.5472 410.61888 410.61888-410.61888c22.64576-22.64576 59.4176-22.64576 82.14016 0 22.64576 22.64576 22.64576 59.4176 0 82.14016l-451.69152 451.6864a58.07616 58.07616 0 0 1-82.13504-0.07168z"  horiz-adv-x="1024" />

    
    <glyph glyph-name="dingwei" unicode="&#58917;" d="M510.923474-126.107049a43.299457 43.299457 0 0 0-32.382474 14.536711c-36.825852 41.38483-359.761913 410.16355-359.761913 613.424624C118.779087 718.09147 294.700741 894.013124 510.930699 894.013124c216.237183 0 392.158837-175.921654 392.158837-392.158838 0-203.261074-322.950512-572.039794-359.776363-613.424624a43.350032 43.350032 0 0 0-32.389699-14.536711z m0 933.420109c-168.429323 0-305.451549-137.02945-305.451549-305.458774 0-130.006745 197.416045-390.504311 305.444324-518.358004 108.035504 127.882594 305.465999 388.459635 305.465999 518.358004 0 168.429323-137.02945 305.458774-305.458774 305.458774zM510.923474 331.112961c-86.757864 0-157.346165 70.588302-157.346165 157.353391 0 86.757864 70.588302 157.33894 157.346165 157.33894 86.765089 0 157.35339-70.581077 157.35339-157.33894 0-86.765089-70.581077-157.35339-157.35339-157.353391z m0 227.992267c-38.957229 0-70.646102-31.688873-70.646102-70.638876 0-38.957229 31.688873-70.653327 70.646102-70.653327s70.653327 31.696098 70.653327 70.653327c0 38.950004-31.696098 70.638877-70.653327 70.638876z"  horiz-adv-x="1024" />

    
    <glyph glyph-name="xiangshang2" unicode="&#58899;" d="M64.633 193.819L511.145 640.33l446.512-446.511z"  horiz-adv-x="1024" />

    
    <glyph glyph-name="xiangxia1" unicode="&#58900;" d="M128.005 593.026l386.971-420.571 381.019 422.746z"  horiz-adv-x="1024" />

    
    <glyph glyph-name="jiantou2" unicode="&#58960;" d="M730.564 345.54c-0.36-0.359-0.856-0.449-1.214-0.788l-359.113-394.661c-21.692-21.242-56.657-21.489-78.054-0.518-21.398 20.972-21.173 55.193 0.54 76.459l325.045 357.221-325.698 357.92c-21.69 21.263-21.713 55.689-0.045 76.929 21.691 21.218 56.837 21.196 78.55-0.045l359.966-395.608c21.691-21.241 21.713-55.689 0.022-76.908z"  horiz-adv-x="1024" />

    
    <glyph glyph-name="faxian2" unicode="&#58911;" d="M101.90848 655.03232A489.2672 489.2672 0 0 1 20.48 384c0-164.29056 81.26464-314.90048 214.34368-405.95456 27.0336-18.51392 55.86944-34.24256 86.05696-47.02208a20.48 20.48 0 1 1 15.9744 37.72416 449.536 449.536 0 0 0-78.92992 43.08992A449.98656 449.98656 0 0 0 61.44 384c0 89.62048 26.2144 175.3088 74.62912 248.4224a20.48 20.48 0 1 1-34.16064 22.60992z m278.85568-744.81664a488.2432 488.2432 0 0 1 131.23584-17.73568 492.17536 492.17536 0 0 1 204.26752 44.31872c34.16064 15.64672 66.3552 35.10272 96.0512 58.08128a490.65984 490.65984 0 0 1 191.20128 389.12 489.30816 489.30816 0 0 1-140.0832 343.6544 20.48 20.48 0 1 1-29.2864-28.672A448.38912 448.38912 0 0 0 962.56 384c0-141.39392-65.536-271.89248-175.3088-356.7616a450.43712 450.43712 0 0 0-158.72-78.60224 453.71392 453.71392 0 0 0-236.83072 1.024 20.48 20.48 0 1 1-10.93632-39.44448zM813.58848 772.13696A489.39008 489.39008 0 0 1 512 875.52a489.2672 489.2672 0 0 1-341.23776-137.74848 20.48 20.48 0 0 1 28.42624-29.4912A448.3072 448.3072 0 0 0 512 834.56c101.5808 0 197.95968-33.66912 276.43904-94.74048a20.48 20.48 0 0 1 25.14944 32.3584zM584.82688 311.17312l-260.54656-114.8928 114.8928 260.54656 76.34944 33.66912a20.48 20.48 0 0 1-16.54784 37.4784l-83.59936-36.864a20.48 20.48 0 0 1-10.48576-10.48576l-139.38688-316.12928a20.48 20.48 0 0 1 27.0336-27.0336l316.08832 139.42784a20.48 20.48 0 0 1 10.48576 10.48576l139.38688 316.12928a20.48 20.48 0 0 1-27.0336 27.0336l-170.1888-75.12064a20.48 20.48 0 1 1 16.50688-37.43744l121.93792 53.73952-114.8928-260.54656zM512 384m-20.48 0a20.48 20.48 0 1 1 40.96 0 20.48 20.48 0 1 1-40.96 0Z"  horiz-adv-x="1024" />

    
    <glyph glyph-name="gengduo" unicode="&#58919;" d="M264.52 401.552c0-42.952-34.808-77.752-77.784-77.752-42.952 0-77.76 34.808-77.76 77.752 0 42.984 34.808 77.784 77.76 77.784a77.76 77.76 0 0 0 77.784-77.784zM583.616 401.552c0-42.952-34.808-77.752-77.8-77.752-42.952 0-77.76 34.808-77.76 77.752 0 42.984 34.808 77.784 77.76 77.784a77.76 77.76 0 0 0 77.8-77.784zM902.704 401.552c0-42.952-34.808-77.752-77.792-77.752-42.976 0-77.784 34.808-77.784 77.752a77.76 77.76 0 0 0 77.784 77.784 77.76 77.76 0 0 0 77.792-77.784z"  horiz-adv-x="1024" />

    
    <glyph glyph-name="ziyuan" unicode="&#58913;" d="M511.082255 207.519498a343.781264 343.781264 0 1 0 343.781264 343.781264A344.240251 344.240251 0 0 0 511.082255 207.519498z m0 621.009413a275.392201 275.392201 0 1 1 275.392201-275.392201 275.392201 275.392201 0 0 1-275.392201 275.851188zM69.077773-128H65.864864a33.506051 33.506051 0 0 0-30.293142 36.259973 481.936351 481.936351 0 0 0 298.800538 410.334379 33.506051 33.506051 0 0 0 27.080233-61.045271 413.088301 413.088301 0 0 1-259.327656-355.255939 33.506051 33.506051 0 0 0-33.047064-30.293142zM953.545725-128a33.506051 33.506051 0 0 0-33.047064 30.293142 413.088301 413.088301 0 0 1-156.055581 288.243837 33.506051 33.506051 0 1 0 45.8987 50.029583 472.756611 472.756611 0 0 0 178.086957-332.306589 33.506051 33.506051 0 0 0-30.293142-36.259973z"  horiz-adv-x="1024" />

    
    <glyph glyph-name="ziyuan1" unicode="&#58922;" d="M329.495-50.759c-0-0.003-0-0.006-0-0.009 0-42.659 34.582-77.241 77.241-77.241 42.659 0 77.241 34.582 77.241 77.241 0 0.003-0 0.006-0 0.009 0 0.002 0 0.005 0 0.008 0 42.659-34.582 77.241-77.241 77.241-42.659 0-77.241-34.582-77.241-77.241 0-0.003 0-0.006 0-0.009zM938.133-50.759c-0-0.003-0-0.006-0-0.009 0-42.659 34.582-77.241 77.241-77.241 42.659 0 77.241 34.582 77.241 77.241 0 0.003-0 0.006-0 0.009 0 0.002 0 0.005 0 0.008 0 42.659-34.582 77.241-77.241 77.241-42.659 0-77.241-34.582-77.241-77.241 0-0.003 0-0.006 0-0.009zM620.37 84.168h-216.079c-76.354 9.112-135.837 70.577-141.812 147.067 0.041 2.526-48.846 345.221-64.489 490.903-0.645 36.131-15.602 68.648-39.426 92.222-7.211 5.262-17.336 8.928-28.317 8.975l-94.071-0.002c-0 0-0 0-0 0-19.979 0-36.176 16.197-36.176 36.176 0 19.979 16.197 36.176 36.176 36.176 0 0 0 0 0-0l86.040 0c2.562 0.201 5.549 0.315 8.561 0.315 26.905 0 51.677-9.132 71.385-24.466 39.769-35.043 65.211-86.036 66.302-142.99 17.521-143.778 63.963-485.984 64.452-485.984s9.777-80.174 75.774-85.551c74.308-4.4 677.567 0 684.412 0 0.292 0.009 0.636 0.014 0.981 0.014 19.169 0 34.709-15.54 34.709-34.709 0-0.177-0.001-0.353-0.004-0.529 0 0.026 0 0.024 0 0.023 0-19.538-15.7-35.408-35.172-35.684-17.625-0-275.746-1.956-473.248-1.956zM289.897 293.891s492.776 7.333 630.636 15.155 155.459 82.129 155.459 82.129 56.708 217.545 72.841 301.141c22.488 123.194-86.529 105.595-86.529 105.595h-834.493zM258.61 260.159l-70.885 573.439h872.136c4.958 0.721 10.683 1.133 16.503 1.133 31.345 0 59.901-11.943 81.364-31.528 18.408-21.783 29.657-50.306 29.657-81.455 0-12.936-1.94-25.419-5.545-37.173-15.896-82.699-70.649-292.422-73.093-302.2s-27.376-97.773-186.747-108.039c-136.882-8.8-612.060-15.644-632.103-16.133zM268.387 764.668l53.286-432.157c111.461 0 482.021 7.822 596.905 15.155 105.595 6.844 121.727 53.286 122.216 55.242s56.22 214.612 71.863 297.23c2.284 6.412 3.605 13.808 3.605 21.513 0 12.248-3.336 23.717-9.15 33.547-8.336 5.922-19.004 9.66-30.546 9.66-2.965 0-5.872-0.247-8.702-0.72l-799.966 0.042z"  horiz-adv-x="1187" />

    
    <glyph glyph-name="up" unicode="&#59410;" d="M515.2 512l-179.2-179.2h358.4z"  horiz-adv-x="1024" />

    
    <glyph glyph-name="wode4" unicode="&#58920;" d="M935.4 123.2c-19.4 41.6-46.8 79-81.8 111.4-70.2 65.2-164 102.6-257.4 102.6h-159.6c-93.4 0-187.2-37.4-257.4-102.6-35-32.4-62.4-70-81.8-111.4-20.4-43.6-30.6-89.6-30.6-136.6 0-61.4 49.8-111.2 111.2-111.2h676.8c61.4 0 111.2 49.8 111.2 111.2 0 47-10.2 93-30.6 136.6z m-80.6-185H178c-26.8 0-48.4 21.8-48.4 48.4 0 75.8 33.2 148 93.8 203.4 58.6 53.6 136.2 84.4 213.2 84.4h159.6c77 0 154.8-30.8 213.2-84.4 60.4-55.4 93.8-127.6 93.8-203.4 0-26.8-21.6-48.4-48.4-48.4zM516.4 354.2c149.4 0 270.8 121.6 270.8 270.8S665.8 896 516.4 896 245.6 774.4 245.6 625.2s121.4-271 270.8-271z m0 479c114.8 0 208-93.4 208-208s-93.4-208-208-208c-114.8 0-208 93.4-208 208s93.2 208 208 208z"  horiz-adv-x="1024" />

    
    <glyph glyph-name="wode5" unicode="&#58888;" d="M909.952-33.024a397.76 397.76 0 0 1-269.056 376.064l-9.792 3.392 8.832 5.184a255.104 255.104 0 0 1 126.208 219.264c0 140.096-113.984 254.08-254.144 254.08S257.856 710.976 257.856 570.88c0-89.728 48.32-173.76 126.144-219.264l8.832-5.184-9.728-3.392a397.696 397.696 0 0 1-269.056-376.064l0.064-0.896-0.064-0.768c0-12.352 9.6-22.4 21.504-22.4H888.32a22.016 22.016 0 0 1 21.568 22.4l-0.128 0.768c0 0.256 0.192 0.576 0.192 0.896zM305.984 570.88c0 115.456 92.416 209.408 206.016 209.408s205.952-93.952 205.952-209.408c0-104.256-76.544-193.408-178.176-207.296l-0.512-0.128-5.248 0.384a315.968 315.968 0 0 1-44.032 0l-5.248-0.384-0.512 0.128c-101.568 13.888-178.24 103.04-178.24 207.296zM512 316.8a350.144 350.144 0 0 0 349.12-329.088H162.752A350.336 350.336 0 0 0 512 316.8z m0 0"  horiz-adv-x="1024" />

    
    <glyph glyph-name="location" unicode="&#58897;" d="M512.103132 575.879021a106.221743 106.221743 0 1 0-75.507022-31.354611A106.221743 106.221743 0 0 0 512.103132 575.879021m0 63.989002a170.850635 170.850635 0 1 1 120.939214-49.911422A169.570855 169.570855 0 0 1 512.103132 639.868023zM805.172761 771.685367a407.609942 407.609942 0 0 1-586.139257 0 431.285873 431.285873 0 0 1 0-599.576948L512.103132-128l293.069629 300.108419a431.285873 431.285873 0 0 1 0 599.576948z m-44.152411-557.344207l-248.917218-255.956007-248.917217 255.956007a365.377201 365.377201 0 0 0 0 508.712565 346.82039 346.82039 0 0 0 497.834435 0 365.377201 365.377201 0 0 0 0-508.712565z"  horiz-adv-x="1024" />

    
    <glyph glyph-name="sousuo1" unicode="&#58881;" d="M722.489 253.156c45.511 62.577 73.955 136.533 73.955 216.177 0 204.8-164.977 369.778-369.777 369.778S56.889 674.133 56.889 469.333s164.978-369.777 369.778-369.777c79.644 0 153.6 28.444 216.177 68.266l221.867-221.866c22.756-22.756 56.889-22.756 79.645 0 22.755 22.755 22.755 56.888 0 79.644L722.489 253.156z m-295.822-96.712c-170.667 0-312.89 142.223-312.89 312.89S256 782.221 426.668 782.221 739.556 640 739.556 469.333s-142.223-312.889-312.89-312.889"  horiz-adv-x="1027" />

    
    <glyph glyph-name="hongbao-" unicode="&#58882;" d="M183.912765 850.021809h650.262989v-932.700449H183.912765zM186.54009 850.021809h651.576652L512.328416 361.996151zM512.328416 388.269403m-191.137909 0a191.137909 191.137909 0 1 1 382.275818 0 191.137909 191.137909 0 1 1-382.275818 0ZM595.745991 360.025657H527.435536v36.125722h68.310455c8.538807 0 15.10712 6.568313 15.10712 15.10712 0 8.538807-6.568313 15.10712-15.10712 15.10712h-44.664529l24.95959 24.959589c5.911482 5.911482 5.911482 15.10712 0 21.018602-5.911482 5.911482-15.10712 5.911482-21.018602 0L512.328416 429.649775l-42.037204 42.037204c-5.911482 5.911482-15.10712 5.911482-21.018601 0-5.911482-5.911482-5.911482-15.10712 0-21.018602l24.959589-24.959589h-44.664528c-8.538807 0-15.10712-6.568313-15.10712-15.10712 0-8.538807 6.568313-15.10712 15.10712-15.10712h68.310455v-36.125722H429.567672c-8.538807 0-15.10712-6.568313-15.10712-15.10712 0-8.538807 6.568313-15.10712 15.10712-15.10712h68.310455v-49.919179c0-7.225144 5.911482-13.136626 13.136626-13.136626h3.284157c7.225144 0 13.136626 5.911482 13.136626 13.136626v49.919179h68.310455c8.538807 0 15.10712 6.568313 15.10712 15.10712 0 9.195638-7.225144 15.763951-15.10712 15.763951z"  horiz-adv-x="1024" />

    
    <glyph glyph-name="weibiaoti-" unicode="&#58923;" d="M614.4-53.527273H130.327273V774.981818h726.109091v-584.145454c0-134.981818-109.381818-244.363636-242.036364-244.363637z m-437.527273 46.545455h437.527273c107.054545 0 195.490909 88.436364 195.490909 195.490909V728.436364H176.872727v-735.418182zM646.981818 563.2h-349.090909c-13.963636 0-23.272727 9.309091-23.272727 23.272727s9.309091 23.272727 23.272727 23.272728h349.090909c13.963636 0 23.272727-9.309091 23.272727-23.272728s-9.309091-23.272727-23.272727-23.272727zM635.345455 377.018182H302.545455c-13.963636 0-23.272727 9.309091-23.272728 23.272727s9.309091 23.272727 23.272728 23.272727h332.8c13.963636 0 23.272727-9.309091 23.272727-23.272727s-11.636364-23.272727-23.272727-23.272727zM532.945455 214.109091H302.545455c-13.963636 0-23.272727 9.309091-23.272728 23.272727s9.309091 23.272727 23.272728 23.272727h230.4c13.963636 0 23.272727-9.309091 23.272727-23.272727s-11.636364-23.272727-23.272727-23.272727z"  horiz-adv-x="1024" />

    
    <glyph glyph-name="kefu" unicode="&#58883;" d="M192.512 378.88h-61.44V455.68C131.072 665.6 302.08 836.608 512 836.608S892.928 665.6 892.928 455.68v-76.8h-61.44V455.68c0 176.128-143.36 319.488-319.488 319.488S192.512 631.808 192.512 455.68v-76.8zM161.792-68.608c-74.752 0-136.192 61.44-136.192 136.192V278.528C25.6 353.28 87.04 414.72 161.792 414.72c74.752 0 136.192-61.44 136.192-136.192v-210.944c0-75.776-61.44-136.192-136.192-136.192z m0 421.888c-40.96 0-74.752-33.792-74.752-74.752v-210.944c0-40.96 33.792-74.752 74.752-74.752s74.752 33.792 74.752 74.752V278.528c0 40.96-33.792 74.752-74.752 74.752zM862.208-68.608c-74.752 0-136.192 61.44-136.192 136.192V278.528c0 74.752 61.44 136.192 136.192 136.192 74.752 0 136.192-61.44 136.192-136.192V107.52c0-17.408-13.312-30.72-30.72-30.72s-30.72 13.312-30.72 30.72V278.528c0 40.96-33.792 74.752-74.752 74.752s-74.752-33.792-74.752-74.752v-210.944c0-40.96 33.792-74.752 74.752-74.752 22.528 0 44.032 10.24 58.368 28.672 10.24 13.312 29.696 15.36 43.008 5.12 13.312-10.24 15.36-29.696 5.12-43.008-25.6-33.792-64.512-52.224-106.496-52.224zM372.736 36.864H267.264c-17.408 0-30.72 13.312-30.72 30.72s13.312 30.72 30.72 30.72h105.472c17.408 0 30.72-13.312 30.72-30.72s-13.312-30.72-30.72-30.72z"  horiz-adv-x="1024" />

    
    <glyph glyph-name="wode1" unicode="&#58961;" d="M512 432c88 0 160 72 160 160S600 752 512 752s-160-72-160-160 72-160 160-160z m-139.2-16c-51.2 41.6-84.8 104-84.8 176 0 123.2 100.8 224 224 224s224-100.8 224-224c0-70.4-33.6-134.4-84.8-176C811.2 369.6 928 222.4 928 48c0-52.8-43.2-96-96-96H192c-52.8 0-96 43.2-96 96 0 174.4 116.8 321.6 276.8 368zM832 16c17.6 0 32 14.4 32 32 0 176-144 320-320 320h-64c-176 0-320-144-320-320 0-17.6 14.4-32 32-32h640z"  horiz-adv-x="1024" />

    
    <glyph glyph-name="wode2" unicode="&#58894;" d="M510.1 348.9c112.2 0 203.4 91.2 203.4 203.4s-91.2 203.4-203.4 203.4-203.4-91.2-203.4-203.4 91.2-203.4 203.4-203.4z m0 356.2c84.2 0 152.8-68.5 152.8-152.8 0-84.2-68.5-152.8-152.8-152.8S357.3 468 357.3 552.3c0 84.3 68.5 152.8 152.8 152.8zM895.9 53.39999999999998C884.8 202.70000000000005 716.1 319.6 512 319.6c-204.1 0-372.8-117-383.9-266.2-0.8-10.5 2.9-21 10.1-28.8 7.3-7.8 17.6-12.3 28.2-12.3h691.1c10.7 0 21 4.5 28.2 12.3 7.3 7.8 11 18.2 10.2 28.8z m-715.8 9.5C198.4 179.5 340.7 269 512 269s313.6-89.5 331.9-206.1H180.1z"  horiz-adv-x="1024" />

    
    <glyph glyph-name="sousuo2" unicode="&#58971;" d="M938.88694045-3.74010310999995l-272.16372623 272.16372622c49.71026963 58.40956682 79.53643141 133.59634963 79.53643141 216.23967289 0 184.549376-149.75218725 334.30156325-334.30156326 334.30156325S77.03514075 669.212672 77.03514075 484.663296s149.75218725-334.30156325 334.30156325-334.30156325c82.02194489 0 157.2087277 29.82616178 215.61829452 78.91505303l272.16372623-272.16372623c5.59240533-5.59240533 12.42756741-8.07791882 19.88410784-8.0779188 6.83516208 0 14.29170252 2.48551348 19.88410786 8.0779188 10.5634323 11.18481067 10.5634323 28.58340503 0 39.14683734zM126.74541037 484.663296C126.74541037 641.8720237 254.1279763 769.25458963 411.336704 769.25458963s284.59129363-128.0039443 284.59129363-284.59129363-128.0039443-284.59129363-284.59129363-284.59129363S126.74541037 328.07594667 126.74541037 484.663296z"  horiz-adv-x="1024" />

    
    <glyph glyph-name="shouye_huaban_huaban" unicode="&#58916;" d="M976.213333 445.44l-443.733333 375.466667c-13.653333 10.24-30.72 10.24-44.373333 0l-443.733334-375.466667c-13.653333-13.653333-17.066667-34.133333-3.413333-47.786667 13.653333-13.653333 34.133333-17.066667 47.786667-3.413333l13.653333 6.826667V-25.6c0-20.48 13.653333-34.133333 34.133333-34.133333h750.933334c20.48 0 34.133333 13.653333 34.133333 34.133333V401.066667l13.653333-10.24c6.826667-6.826667 13.653333-6.826667 20.48-6.826667 10.24 0 20.48 3.413333 27.306667 13.653333 10.24 13.653333 10.24 34.133333-6.826667 47.786667zM580.266667 8.533333h-136.533334v136.533334h136.533334v-136.533334z m273.066666 443.733334v-443.733334h-204.8v170.666667c0 20.48-13.653333 34.133333-34.133333 34.133333h-204.8c-20.48 0-34.133333-13.653333-34.133333-34.133333v-170.666667H170.666667V452.266667v6.826666l341.333333 290.133334 341.333333-290.133334v-6.826666z"  horiz-adv-x="1024" />

    
    <glyph glyph-name="jiantou5" unicode="&#58889;" d="M70.4 108.8l416 457.6c12.8 16 38.4 16 51.2 0l416-457.6c6.4-9.6 19.2-12.8 28.8-12.8 35.2 0 51.2 41.6 28.8 67.2l-448 492.8c-28.8 32-76.8 32-102.4 0L12.8 163.2c-22.4-25.6-3.2-67.2 28.8-67.2 12.8 0 22.4 3.2 28.8 12.8z"  horiz-adv-x="1024" />

    
    <glyph glyph-name="wode3" unicode="&#58902;" d="M491.98045 218.338221c-175.838384 0-318.811339 151.981753-318.81134 338.830889S316.142066 896 491.98045 896s318.811339-151.981753 318.811339-338.83089-142.972955-338.83089-318.811339-338.830889z m0 627.612903c-148.144673 0-268.762463-129.459759-268.762464-288.782014s120.617791-288.782014 268.762464-288.782013 268.762463 129.626588 268.762463 288.782013S640.125122 845.951124 491.98045 845.951124zM958.269143-128H65.730857a25.024438 25.024438 0 0 0-25.024438 25.024438v76.241121a412.569567 412.569567 0 0 0 243.070707 375.03291 25.024438 25.024438 0 1 0 20.686869-45.544477A362.68752 362.68752 0 0 1 90.755295-26.734441v-51.216683h842.48941v51.216683a362.85435 362.85435 0 0 1-240.401434 340.332356 25.024438 25.024438 0 1 0 16.682959 47.045943A412.736396 412.736396 0 0 0 983.293581-26.734441v-76.241121a25.024438 25.024438 0 0 0-25.024438-25.024438zM849.496253-43.25057h-116.78071a33.365917 33.365917 0 0 0 0 66.731834h116.78071a33.365917 33.365917 0 1 0 0-66.731834z"  horiz-adv-x="1024" />

    
    <glyph glyph-name="dizhi" unicode="&#58892;" d="M512.768-128H512a65.536 65.536 0 0 0-47.283 20.224c-9.677 10.112-97.434 102.656-184.73 219.904C162.15 270.336 102.4 396.544 102.4 487.091 102.4 712.576 286.157 896 512 896s409.6-183.424 409.6-408.883c0-54.784-21.12-121.907-62.746-199.45-40.166-74.777-100.556-161.638-179.532-258.201l-0.64-0.768-117.53-134.4A64.589 64.589 0 0 0 512.768-128zM512 295.706c105.728 0 191.744 85.862 191.744 191.41S617.728 678.529 512 678.529s-191.744-85.862-191.744-191.411S406.272 295.706 512 295.706z"  horiz-adv-x="1024" />

    
    <glyph glyph-name="gengduo1" unicode="&#58941;" d="M925 85H99.5c-12-0.7-23.5 5.3-29.7 15.7-6.2 10.3-6.2 23.3 0 33.6s17.7 16.4 29.7 15.7H925c12 0.7 23.5-5.3 29.7-15.7 6.2-10.3 6.2-23.3 0-33.6-6.3-10.4-17.7-16.4-29.7-15.7zM925 361.3H99.5c-12-0.7-23.5 5.3-29.7 15.7-6.2 10.3-6.2 23.3 0 33.6s17.7 16.4 29.7 15.7H925c12 0.7 23.5-5.3 29.7-15.7 6.2-10.3 6.2-23.3 0-33.6-6.3-10.3-17.7-16.4-29.7-15.7zM925 616.3H99.5c-12-0.7-23.5 5.3-29.7 15.7-6.2 10.3-6.2 23.3 0 33.6s17.7 16.4 29.7 15.7H925c12 0.7 23.5-5.3 29.7-15.7 6.2-10.3 6.2-23.3 0-33.6-6.3-10.3-17.7-16.4-29.7-15.7z"  horiz-adv-x="1024" />

    
    <glyph glyph-name="dingdan1" unicode="&#58973;" d="M645.688889-73.386667l-534.414222 2.844445 2.844444 912.497778L914.204444 839.111111v-641.422222c0-149.333333-120.945778-271.132444-268.515555-271.132445z m-477.582222 56.718223h477.525333c115.996444 0 211.797333 95.857778 211.797333 211.854222l2.844445 589.937778-692.167111 2.844444v-804.636444zM681.415111 603.704889z m0 0H298.097778a26.965333 26.965333 0 0 0-28.387556 28.444444c0 16.839111 11.491556 28.387556 28.444445 28.387556h383.260444c16.896 0 28.444444-11.548444 28.444445-28.444445s-11.548444-28.387556-28.444445-28.387555z m-12.8-204.401778H303.217778a26.965333 26.965333 0 0 0-28.387556 28.387556c0 16.896 11.491556 28.444444 28.444445 28.444444h365.340444c16.896 0 28.444444-11.548444 28.444445-28.444444a28.444444 28.444444 0 0 0-28.444445-28.444445z m-112.412444-178.858667H303.217778a26.965333 26.965333 0 0 0-28.387556 28.387556c0 16.896 11.491556 28.387556 28.444445 28.387556h252.928c16.896 0 28.444444-11.491556 28.444444-28.444445a28.444444 28.444444 0 0 0-28.444444-28.330667z"  horiz-adv-x="1024" />

    
    <glyph glyph-name="sousuo3" unicode="&#58989;" d="M737.9 151.9c91.9 87.3 129.9 217.2 99.6 340.3-30.3 123.1-124.4 220.5-246.3 255.1s-253.1 1.1-343.6-87.7c-137.2-136-139.6-356.9-5.4-495.8 134.1-139 355-144.3 495.7-11.9z m50.4-52.6c-169.1-163.3-438.7-158.6-602 10.5C23 279 27.7 548.5 196.9 711.9 366 875.2 635.5 870.5 798.9 701.3c163.3-169.1 158.6-438.6-10.6-602z m0 0M898.4-52.6L767.8 82.6c-13.8 14.3-13.4 37.1 0.9 50.9 14.3 13.8 37.1 13.4 50.9-0.9l130.6-135.2c13.8-14.3 13.4-37.1-0.9-50.9-14.3-13.8-37.1-13.4-50.9 0.9z"  horiz-adv-x="1024" />

    
    <glyph glyph-name="dizhi1" unicode="&#58924;" d="M502.697478 888.232845C302.377139 888.232845 140.170048 725.845123 140.170048 525.705415c0-41.545246 7.044629-81.464809 19.869465-118.674898V406.488622l0.541895-1.083789c6.141471-17.340624 13.547363-34.139354 22.037043-50.215558l0.180632-0.361263 0.180631-0.361263c3.431999-6.322103 7.044629-12.644205 10.837891-18.785677l0.361263-0.541894 0.180631-0.361263 240.05927-415.813724c30.346093-52.383136 106.030693-52.383136 136.196154 0L811.757982 336.042336l1.083789 1.625683 7.767155 13.547363c0.361263 0.541895 0.722526 1.083789 0.903157 1.625683l0.180632 0.541895 0.180631 0.361263c8.850944 16.618098 16.618098 33.958723 22.940201 51.841242l0.541895 1.083789v0.361263c12.824837 37.21009 19.869466 77.129652 19.869465 118.674898C865.224907 725.845123 702.837185 888.232845 502.697478 888.232845z m0-523.650732c-95.192803 0-172.141824 77.129652-172.141824 172.141824s77.129652 172.141824 172.141824 172.141824 172.141824-77.129652 172.141823-172.141824-77.129652-172.141824-172.141823-172.141824z"  horiz-adv-x="1024" />

    
    <glyph glyph-name="icon-test" unicode="&#58907;" d="M808.6 492.8c0 178.8-129.8 308.5-308.5 308.5-170.1 0-308.5-138.4-308.5-308.5 0-125.6 170.6-338.3 262.3-452.6l6.8-8.4c9.6-12 24-18.9 39.5-18.9 15.4 0 29.8 6.9 39.5 18.9l6.8 8.4c91.5 114.3 262.1 327 262.1 452.6z m-310.1-89.4c-62.9 0-114 51.1-114 114s51.1 114 114 114 114-51.1 114-114-51.1-114-114-114zM500.1 828.2c-184.9 0-335.4-150.4-335.4-335.4 0-135 174.5-352.5 268.2-469.4l6.7-8.4c14.8-18.4 36.8-29 60.4-29s45.6 10.6 60.4 29l6.8 8.4C661 140.3 835.4 357.8 835.4 492.8c0 194.3-141 335.4-335.3 335.4z m0-815.3c-15.4 0-29.8 6.9-39.5 18.9l-6.8 8.4c-91.7 114.3-262.3 327-262.3 452.6 0 170.1 138.4 308.5 308.5 308.5 178.8 0 308.5-129.8 308.5-308.5 0-125.6-170.6-338.3-262.3-452.6l-6.8-8.4c-9.5-12-23.9-18.9-39.3-18.9zM498.5 517.4m-87.2 0a87.2 87.2 0 1 1 174.4 0 87.2 87.2 0 1 1-174.4 0ZM612.5 517.4c0 62.9-51.1 114-114 114s-114-51.1-114-114 51.1-114 114-114 114 51.1 114 114z m-201.2 0c0 48.1 39.1 87.2 87.2 87.2s87.2-39.1 87.2-87.2-39.1-87.2-87.2-87.2-87.2 39.1-87.2 87.2z"  horiz-adv-x="1024" />

    
    <glyph glyph-name="jinbishangcheng" unicode="&#58884;" d="M512-119.172414C234.637241-119.172414 8.827586 106.637241 8.827586 384S234.637241 887.172414 512 887.172414 1015.172414 661.362759 1015.172414 384 789.362759-119.172414 512-119.172414z m0 918.068966C283.188966 798.896552 97.103448 612.811034 97.103448 384S283.188966-30.896552 512-30.896552 926.896552 155.188966 926.896552 384 740.811034 798.896552 512 798.896552zM707.089655 198.973793c-26.129655-8.827586-79.977931-6.17931-79.977931-6.17931v72.73931c32.662069-9.004138 84.568276 1.235862 84.568276 30.72-1.765517 39.017931-74.857931 61.44-173.550345 38.135173v-188.38069h-90.041379v172.491034c-19.950345-5.649655-39.547586-11.652414-58.791724-18.008276-19.244138-6.355862-37.252414-12.888276-53.848276-19.773793v-85.274482h-90.747586V412.071724H335.448276v-47.668965c12.182069 4.413793 28.071724 9.886897 47.492414 16.066207 19.42069 6.355862 41.666207 12.005517 65.677241 17.302068v65.324138H257.05931l-1.05931 80.684138c28.071724 0 236.226207-2.648276 368.110345 7.944828 63.028966 4.943448 108.57931 17.655172 108.57931 17.655172l-1.05931-8.827586c-2.118621-33.191724-2.118621-64.088276 1.05931-97.456552H538.129655v-48.375172c311.437241 37.428966 306.317241-177.257931 168.96-215.746207z"  horiz-adv-x="1024" />

    


  </font>
</defs>
</svg>
